<svg width="250" height="250" viewBox="0 0 250 250" fill="none" xmlns="http://www.w3.org/2000/svg">
<path d="M97.4364 53.4272C123.491 42.774 149.363 32.6654 174.805 21.571C183.483 17.7869 191.081 11.5254 199.695 6.06416C209.67 16.8535 218.086 29.265 216.421 46.0121C215.439 55.8898 209.736 63.3157 201.774 68.1453C192.6 73.7102 182.719 78.2942 172.75 82.3312C141.691 94.9094 110.446 107.028 78.9649 119.446C66.6763 104.906 54.4725 90.4652 41.8172 75.4906C60.5609 68.0617 78.8231 60.8237 97.4364 53.4272Z" fill="#2DD8FC"/>
<path d="M94.9523 131.927C107.539 126.806 120.085 121.579 132.724 116.592C148.186 110.491 163.709 104.538 177.421 94.8778C180.655 92.5996 183.635 89.9609 186.749 87.4743C200.535 98.6171 212.407 123.808 199.697 140.626C193.392 148.969 184.888 154.408 175.447 158.346C161.056 164.347 146.512 169.98 131.519 175.831C130.717 175.882 130.429 175.876 130.043 175.551C122.084 165.775 114.159 156.375 106.391 146.848C102.433 141.993 98.7563 136.908 94.9523 131.927Z" fill="#1B84F5"/>
<path fill-rule="evenodd" clip-rule="evenodd" d="M67.0036 200.587C58.9316 191.58 51.4471 182.736 43.835 173.741C41.0644 170.467 38.2769 167.173 35.438 163.844C34.303 162.513 33.2163 161.141 31.9864 159.589C31.3708 158.811 30.7194 157.989 30.0082 157.104C51.7332 148.56 72.9646 140.211 94.5741 131.894C96.8723 134.649 99.0178 137.426 101.141 140.174C102.882 142.427 104.608 144.661 106.391 146.848C110.164 151.475 113.975 156.073 117.808 160.698C121.865 165.594 125.948 170.52 130.039 175.546C135.525 182.009 141.028 188.395 146.594 194.855C154.996 204.606 163.544 214.525 172.397 225.131C167.321 226.76 162.388 228.503 157.535 230.219C146.685 234.055 136.234 237.75 125.466 239.696C110.559 242.39 96.6208 237.301 86.4988 224.64C84.0079 221.524 81.4602 218.454 78.9035 215.373C74.8963 210.544 70.8671 205.688 67 200.589C67.0012 200.589 67.0024 200.588 67.0036 200.587Z" fill="#29C8FC"/>
</svg>
